<svg fill="#ffffff" role="img" viewBox="0 0 24 24" xmlns="http://www.w3.org/2000/svg"><title>ISC2</title><path d="M22.569 13.918c-.378-1.748-1.637-2.909-3.419-3.235l-1.922-.351c-1.127-.205-1.523-.466-1.523-1.041 0-.662.62-1.066 1.705-1.066 1.157 0 1.956.402 2.296 1.158l1.432-.619c-.529-1.258-1.848-1.979-3.69-1.979-2.029 0-3.376.924-3.376 2.502 0 1.577 1.107 2.378 3.125 2.74l1.921.34c1.396.257 1.83.626 1.83 1.251 0 .762-.779 1.166-2.029 1.166-1.442 0-2.316-.487-2.673-1.42l-1.481.658c.61 1.488 2.008 2.23 4.144 2.23 2.115 0 3.743-.883 3.66-2.334zM11.666 8.52h4.595l-1.05 1.51H12.19c-.874 0-1.242.413-1.242 1.341 0 .864.28 1.185 1.051 1.185h2.46l-1.011 1.46h-1.44c-1.749 0-2.731-.834-2.731-2.655 0-1.914 1.07-2.841 2.39-2.841zM2.58 13.955l4.316-5.385H4.636l-3.398 4.21v1.175H2.58Zm1.545-2.285 2.531-3.15h2.15l-3.524 4.394v1.042h1.49l4.521-5.637H8.813L6.1 11.714v2.241h1.564v-1.127l1.09-1.341H8.71l-1.574 1.96h1.614v.466H1.54v-1.51h1.04v-2.184H1.54V8.52h1.04v1.54h1.545Zm15.826-6.495A9.68 9.68 0 0 1 24 11.53c-.015.688-.067 1.378-.17 2.064l1.196 1.47a11.144 11.144 0 0 0-4.004-9.805A10.74 10.74 0 0 0 12.026.96 11.15 11.15 0 0 0 .89 6.273L0 5.17A12.44 12.44 0 0 1 12.024.01c3.123.013 6.136 1.187 8.441 3.284v.001h-.001c.214.211.336.335.534.542l-1.048 1.339Zm2.25 10.999a11.14 11.14 0 0 1-21.142 3.535 10.73 10.73 0 0 1-1.085-3.35L0 14.502a11.455 11.455 0 0 0 1.258 3.864 12.636 12.636 0 0 0 22.756-.511l-1.815-1.68Z"/></svg>