<svg fill="#ffffff" role="img" viewBox="0 0 24 24" xmlns="http://www.w3.org/2000/svg"><title>Kali Linux</title><path d="M12.001 0A12 12 0 000 12a12 12 0 0012 12 12 12 0 0012-12A12 12 0 0012 0zM8.344 3.731c1.37.199 3.093 1.096 4.316 2.052a22.25 22.25 0 011.83 1.583c.312.316.326.315.65.176 1.487-.643 3.197-.834 4.79-.536l.245.046a7.126 7.126 0 00-1.848 1.493c-.636.702-1.282 1.597-1.42 1.968-.02.056-.051.13-.067.167-.015.038-.07.218-.116.398l-.089.324-.035.14-.144-.061c-1.353-.585-2.834-.84-4.301-.734-.813.057-1.724.237-2.455.483l-.337.112.18-.328c1.077-1.954 1.705-4.542 1.588-6.536l-.027-.478-.13.064c-.134.065-1.558.913-2.222 1.32-.44.271-1.205.814-1.637 1.163-.122.098-.22.181-.223.187-.001.004-.002.043-.004.088-.006.196.126.96.223 1.284l.035.118-.103-.067a5.556 5.556 0 00-2.868-.696c-.66.027-1.396.155-2.02.35l-.23.073.084-.216c.365-.945.986-1.82 1.737-2.453 1.01-846 2.37-1.321 3.72-1.306l.37.004-.326-.067c-.201-.041-.83-.244-1.072-.346-.076-.032-.136-.06-.134-.065.004-.006.496-.341 1.059-.72l1.042-.698.175-.022zM19.168 8.64c.241.603.292 1.006.236 1.838-.02.3-.061.645-.098.81-.038.163-.075.297-.083.296-.007-.003-.133-.18-.28-.396a5.592 5.592 0 00-1.88-1.745c-.328-.184-.52-.267-.84-.366-.17-.052-.31-.1-.311-.106 0-.007.13-.19.345-.49.336-.465.55-.845.698-1.24l.056-.149.208.204a7.481 7.481 0 011.95 1.345zm-1.846 3.197c.502.81 1.056 2.052 1.353 3.036l.07.23-.218-.093a5.462 5.462 0 00-2.583-.497c-.636.038-1.28.182-1.868.42l-.248.1-.037-.25c-.173-1.182-.676-2.597-1.282-3.606l-.161-.268.212.016c1.07.081 2.222-.058 3.255-.395a6.562 6.562 0 001.35-.615l.156-.095zm-6.669.758c.414.73.916 1.84 1.155 2.552.05.151.096.28.102.288.005.006-.062.062-.15.122-1.071.742-2.52 1.488-3.921 2.019a11.168 11.168 0 01-1.637.525l-.234.058.077-.227a6.299 6.299 0 00.32-2.316 6.136 6.136 0 00-1.085-3.053l-.14-.207.228.065c.983.275 2.046.331 3.104.161.73-.118 1.433-.318 2.05-.584l.132-.057zM2.85 13.918c.642.508 1.465.856 2.28 962.338.044.664.032.966-.037l.182-.04-.083.17c-.43.896-.867 1.551-1.503 2.253a6.574 6.574 0 01-1.529 1.258l-.163.097.026-.188c.205-1.48-.002-3.061-.59-4.502l-.082-.199.16-.013c.123-.008.274-.031.336-.051a3.003 3.003 0 00.002.289zm3.568 1.267c.607 0 1.275-.084 1.884-.234.908-.225 1.62-.603 2.378-1.264l.164-.144.116.19a8.125 8.125 0 011.087 2.686c.068.322.102.593.102.822 0 .524-.131.841-.453 1.09-.277.214-.52.283-.984.278-1.025-.01-2.22-.534-3.153-1.382l-.247-.224-.035.33c-.116 1.091-.531 2.298-1.047 3.058l-.066.098-.063-.098a5.242 5.242 0 01-1.021-3.238 5.485 5.485 0 011.09-3.21l.135-.178.113.02z"/></svg>