<svg xmlns="http://www.w3.org/2000/svg" width="149" height="39" fill="none" viewBox="0 0 165 42">
  <!-- "a Veeam company" text -->
  <path fill="#4c4e54" d="M60.2092 31.6064v6.3897h-1.2216v-1.1159c-.4463.8575-1.3625 1.3038-2.3726 1.3038-2.0555 0-3.2771-1.5974-3.2771-3.3828 0-1.9498 1.4213-3.3827 3.2771-3.3827 1.2685 0 2.079.7047 2.3726 1.3155v-1.1276zm-5.6497 3.2066v.0117c.0117.9514.6812 2.22 2.2317 2.22.9749 0 1.6679-.5403 1.985-1.2686.141-.2936.2114-.6225.2232-.9514.0117-.3288-.047-.6577-.188-.9514-.3053-.74-1.0218-1.3155-2.0437-1.3155-1.339 0-2.2082 1.0571-2.2082 2.2552m12.3371 3.1831-3.2536-8.6919h1.433l2.5136 7.0005 2.5253-7.0005h1.433l-3.2771 8.6919zm10.604-2.8072h-5.4618c.0588 1.292 1.1864 1.9498 2.1495 1.9498.8575 0 1.4917-.4112 1.8441-1.0807h1.2686c-.3054.7048-.7518 1.2333-1.2921 1.5857-.5403.3641-1.1746.5403-1.8206.5403-2.0907 0-3.3828-1.6796-3.3828-3.371 0-1.8324 1.433-3.3945 3.3711-3.3945.9161 0 1.7501.3406 2.3609.9396.7517.7635 1.0688 1.7619.9631 2.8308m-5.4383-.9515h4.2285c-.0587-.8457-.9044-1.7971-2.1142-1.7736-1.2451 0-2.0555.9045-2.1143 1.7736m12.8827.9515h-5.4618c.0587 1.292 1.1863 1.9498 2.1495 1.9498.8574 0 1.4917-.4112 1.8441-1.0807h1.2685c-.3054.7048-.7517 1.2333-1.292 1.5857-.5403.3641-1.1746.5403-1.8206.5403-2.0908 0-3.3828-1.6796-3.3828-3.371 0-1.8324 1.433-3.3945 3.371-3.3945.9162 0 1.7501.3406 2.3609.9396.7518.7635 1.0689 1.7619.9632 2.8308m-5.4383-.9515h4.2285c-.0588-.8457-.9045-1.7971-2.1143-1.7736-1.245 0-2.0555.9045-2.1142 1.7736m13.141-2.631v6.3897h-1.2215v-1.1159c-.4464.8575-1.3625 1.3038-2.3727 1.3038-2.0555 0-3.277-1.5974-3.277-3.3828 0-1.9498 1.4212-3.3827 3.277-3.3827 1.2686 0 2.079.7047 2.3727 1.3155v-1.1276zM86.998 34.813v.0117c.0118.9514.6813 2.22 2.2317 2.22.9749 0 1.6679-.5403 1.985-1.2686.141-.2936.2115-.6225.2232-.9514.0118-.3288-.047-.6577-.1879-.9514-.3054-.74-1.0219-1.3155-2.0438-1.3155-1.339 0-2.2082 1.0571-2.2082 2.2552m7.2637 3.1831v-6.3897h1.1511v.9044c.2701-.5403 1.0101-1.0923 1.938-1.0923.5873 0 1.1981.1761 1.6444.6812.1645.1645.3407.5051.4111.6225.1057-.1879.2349-.4111.4581-.6342.4116-.4111.9986-.6695 1.6916-.6695.587 0 1.245.1644 1.715.646.563.5755.704 1.1863.704 2.4079v3.5237h-1.221v-3.4768c0-.5285-.071-1.0571-.352-1.4212-.224-.3289-.564-.5286-1.14-.5286-.54 0-.998.2232-1.233.6108-.2586.3994-.2938.7518-.2938 1.2921v3.5237h-1.2333v-3.5237c.0117-.5286-.047-.9162-.2584-1.2686-.2349-.3758-.6108-.6225-1.2098-.6343-.5756-.0117-.9984.2702-1.2098.6226-.235.3406-.3407.7869-.3407 1.3038v3.5002zm19.7783-2.2435h1.257c-.388 1.3861-1.644 2.4314-3.242 2.4314-2.091 0-3.418-1.6091-3.418-3.3828 0-1.891 1.445-3.3827 3.359-3.3827 1.527 0 2.902.9396 3.301 2.4783h-1.257c-.329-.8574-1.127-1.339-1.997-1.339-.646-.0117-1.115.1997-1.562.6225-.376.3759-.622.9749-.622 1.6209 0 1.3156.963 2.2435 2.184 2.2435 1.069-.0118 1.739-.6578 1.997-1.2921m2.076-.9514v-.0117c0-1.7031 1.257-3.371 3.406-3.371 2.15 0 3.406 1.6679 3.406 3.3827 0 1.7149-1.256 3.3711-3.406 3.3711-2.149 0-3.406-1.6562-3.406-3.3711m1.221 0v.0118c0 1.2685.964 2.2199 2.185 2.2199 1.222 0 2.185-.9514 2.185-2.2317 0-1.2802-.963-2.2317-2.185-2.2317-1.221 0-2.185.9515-2.185 2.2317m6.84 3.1949v-6.3897h1.151v.9044c.27-.5403 1.01-1.0923 1.938-1.0923.587 0 1.198.1761 1.644.6812.165.1645.341.5051.411.6225.106-.1879.235-.4111.458-.6342.412-.4111.999-.6695 1.692-.6695.587 0 1.245.1644 1.715.646.564.5755.704 1.1863.704 2.4079v3.5237h-1.221v-3.4768c0-.5285-.071-1.0571-.352-1.4212-.224-.3289-.564-.5286-1.14-.5286-.54 0-.998.2232-1.233.6108-.259.3994-.294.7518-.294 1.2921v3.5237h-1.233v-3.5237c.012-.5286-.047-.9162-.258-1.2686-.235-.3758-.611-.6225-1.21-.6343-.576-.0117-.999.2702-1.21.6226-.235.3406-.341.7869-.341 1.3038v3.5002zm11.275 2.3257v-8.7154h1.163v1.1158c.482-.7634 1.304-1.3037 2.443-1.3037 2.197 0 3.23 1.8323 3.23 3.418 0 1.8088-1.304 3.3475-3.218 3.3475-1.327 0-2.114-.7282-2.396-1.245v3.3828zm5.603-5.5206v-.0117c0-1.0454-.74-2.2317-2.232-2.2317-.634 0-1.186.2467-1.585.6578-.388.3993-.623.9631-.623 1.5974s.235 1.1863.634 1.5857c.4.3993.963.646 1.586.646 1.292 0 2.22-.9984 2.22-2.2435m8.991-3.1948v6.3897h-1.222v-1.1159c-.446.8575-1.362 1.3038-2.372 1.3038-2.056 0-3.277-1.5974-3.277-3.3828 0-1.9498 1.421-3.3827 3.277-3.3827 1.268 0 2.079.7047 2.372 1.3155v-1.1276zm-5.65 3.2066v.0117c.012.9514.682 2.22 2.232 2.22.975 0 1.668-.5403 1.985-1.2686.141-.2936.211-.6225.223-.9514.012-.3288-.047-.6577-.188-.9514-.305-.74-1.022-1.3155-2.043-1.3155-1.339 0-2.209 1.0571-2.209 2.2552m7.264 3.1831v-6.3897h1.151v.9866c.305-.6577 1.022-1.1863 2.161-1.1745 2.044.0234 2.584 1.5034 2.584 2.8307v3.7469h-1.233v-3.465c0-1.1511-.446-1.9733-1.691-1.9616-1.198.0118-1.75.7635-1.75 1.8676v3.559zm7.735 2.3257 1.057-2.5136-2.443-6.2018h1.315l1.762 4.6748 1.786-4.6748h1.315l-3.488 8.7154z" opacity=".8"></path>
  <!-- "Securiti AI" text -->
  <path fill="#1f2228" d="M160.001 23.1652V4.45898h3.766V23.1652zM146.167 19.4998l-1.339 3.6654h-4.096l7.584-18.70622h3.312l7.406 18.70622h-4.12l-1.365-3.6654zm6.371-3.0082-2.731-7.58357-2.654 7.58357zM132.967 7.41659V4.45898h3.311v2.95761zm0 15.74861V9.28721h3.311V23.1652zM126.371 23.1652V11.8404h-2.301V9.28721h2.301V4.45898h3.311v4.82823h2.376v2.55319h-2.376v11.3248zM119.905 7.41659V4.45898h3.312v2.95761zm0 15.74861V9.28721h3.312V23.1652zM111.931 23.1652V9.28716h3.134v1.82004c.607-1.23863 1.744-2.2245 3.843-2.24978v3.33678h-.152c-2.326 0-3.514 1.087-3.514 3.4885v7.4825zM109.687 9.28711V23.1651h-3.109v-1.8453c-.581 1.0869-1.82 2.3003-4.323 2.275-4.5498-.0252-5.4093-3.4884-5.4093-5.9152V9.28711h3.3113v7.55829c0 2.0476.683 3.6654 3.034 3.6402 2.376 0 3.185-1.5673 3.185-3.5391V9.28711zM92.054 18.1094h3.3874c-.7837 3.084-3.539 5.4855-7.1286 5.4855-4.3985 0-7.4319-3.4126-7.4319-7.3814 0-4.0951 3.1598-7.35608 7.3055-7.35608 3.4885 0 6.4461 2.19928 7.255 5.58658H92.054c-.5814-1.4662-1.9211-2.5026-3.7412-2.5026-1.2134-.0253-2.1487.4045-2.9576 1.1881-.7078.7584-1.1376 1.8706-1.1376 3.084 0 2.5026 1.7443 4.2721 4.0952 4.2721 2.0728 0 3.2357-1.2386 3.7412-2.3762M80.1301 17.3258H68.9569c.1517 2.2245 2.1234 3.4632 4.0193 3.4379 1.6178 0 2.7048-.7331 3.3368-1.8706h3.4126c-.6572 1.542-1.6431 2.7048-2.8059 3.4884-1.1628.8089-2.5279 1.2134-3.9688 1.2134-4.2721 0-7.3308-3.4632-7.3308-7.3308 0-3.9435 3.084-7.40668 7.2803-7.40668 2.0728 0 3.8929.78364 5.1821 2.12338 1.6937 1.7443 2.3256 3.9182 2.0476 6.345m-11.1226-2.5279h7.8616c-.1264-1.3145-1.5167-3.1598-3.9434-3.1345-2.4521 0-3.7918 1.7695-3.9182 3.1345M52.511 17.3515h3.7412c.1264 2.5279 1.8201 3.0082 2.629 3.0082 1.4409 0 2.5531-1.1629 2.5531-2.4774 0-1.5925-1.3397-1.997-3.9434-3.0334-1.4156-.5056-4.6766-1.6684-4.6766-5.2074 0-3.58957 3.1598-5.53603 6.1933-5.53603 2.4773 0 5.7635 1.31449 5.9152 5.46019h-3.716c-.1517-.85947-.4803-2.30036-2.3256-2.30036-1.2387 0-2.3004.85948-2.3004 2.12341-.0253 1.39029.9859 1.74419 4.1457 3.05869 2.8565 1.2387 4.4491 2.6037 4.4491 5.258 0 3.0082-1.8454 5.8141-6.2439 5.8141-4.2468 0-6.446-2.5532-6.4207-6.168"></path>
  <!-- Blue logo shapes -->
  <path fill="#1ca8dd" d="M32.4312.387551C38.1029-1.51055 43.5059 3.88563 41.6158 9.56236l-3.0557 9.17284c-.4988 1.4976-.4955 3.1175.0088 4.6133l3.0195 8.9599c1.9075 5.6561-3.4463 11.0696-9.1211 9.2188l-9.1582-2.9873c-1.4739-.4805-3.0629-.476-4.5341.0127L9.55231 41.617C3.87763 43.5026-1.5126 38.0931.389223 32.4217l3.073237-9.1631c.49582-1.4793.50161-3.0795.01661-4.5625L.486879 9.53794C-1.37159 3.85815 4.04725-1.50711 9.70661.408059L18.6646 3.44029c1.5005.50769 3.1259.51096 4.6279.00781zM20.9996 9.96568c-2.9262.00002-5.7326 1.16242-7.8018 3.23142-2.0692 2.0693-3.23241 4.8764-3.23241 7.8028.00004 2.9263 1.16321 5.7325 3.23241 7.8017 2.0693 2.0692 4.8754 3.2324 7.8018 3.2324 2.9263 0 5.7325-1.1632 7.8017-3.2324 2.0693-2.0692 3.2324-4.8754 3.2325-7.8017 0-2.9264-1.1632-5.7335-3.2325-7.8028-2.0692-2.069-4.8756-3.23142-7.8017-3.23142"></path>
  <path fill="#1ca8dd" d="M17.7498 24.2505c.4268.4267.9335.7652 1.4912.9961.5576.2309 1.1553.3497 1.7588.3497.6036-.0001 1.2012-.119 1.7588-.3501.5576-.231 1.0642-.5696 1.491-.9964.4267-.4268.7652-.9335.9961-1.4912.2309-.5576.3497-1.1553.3496-1.7588 0-.6036-.119-1.2012-.35-1.7588s-.5696-1.0642-.9964-1.4909c-.8621-.8618-2.0311-1.3459-3.2501-1.3458-1.2189.0001-2.3879.4845-3.2497 1.3465s-1.3459 2.031-1.3458 3.25c.0002 1.2189.4845 2.3879 1.3465 3.2497"></path>
</svg>
